<?xml version="1.0" encoding="UTF-8"?>
<!-- Generator: Adobe Illustrator 22.0.1, SVG Export Plug-In . SVG Version: 6.00 Build 0)  -->
<svg version="1.1" id="Layer_1" xmlns="http://www.w3.org/2000/svg" xmlns:xlink="http://www.w3.org/1999/xlink" x="0px" y="0px" viewBox="0 0 142 43.6" style="enable-background:new 0 0 142 43.6;" xml:space="preserve">
<style type="text/css">
	.st0{fill:#FFFFFF;}
</style>
<path class="st0" d="M33.1,19.2c0,0-0.1-0.1-0.1-0.1c-0.2,0.4-0.4,0.8-0.7,1.2c0,0,0.1,0.1,0.1,0.1C32.6,20,32.8,19.6,33.1,19.2   M19.2,20.7c0-0.1,0-0.1,0-0.2c-0.7-0.1-1.4-0.2-2-0.3C17.7,20.8,18.8,21,19.2,20.7 M31.8,23.6c0.1,0,0.1,0.1,0.2,0.1  c0.4-0.5,0.9-1,1.4-1.6c-0.4,0-0.6,0-0.9-0.1C32.2,22.5,32,23,31.8,23.6 M34.7,18.2c-0.1,0-0.1,0-0.2,0c-0.5,1-1,2-1.5,2.9  c0.6,0.2,1,0.1,1.2-0.4c0.2-0.6,0.4-1.2,0.5-1.8C34.7,18.6,34.7,18.4,34.7,18.2 M23.8,25c0.9-1.8,2.4-3.2,3.3-4.9  c0,0-0.1-0.1-0.1-0.1c-1.8,0.5-3.6,0.9-5.4,1.3C22.3,22.6,23,23.8,23.8,25 M13,34.2c0,0,0.1-0.1,0.1-0.1c1.2-3.4,2.8-6.6,4.4-9.9  c0.4-0.9,0.8-1.7,1.2-2.6c-0.5-0.1-0.9-0.2-1.3-0.3c-0.5-0.2-1-0.6-1.5-0.9c-0.2-0.1-0.2-0.4-0.3-0.7c0.2-0.1,0.4-0.2,0.6-0.2  c0.9,0.1,1.8,0.3,2.7,0.5c0.4,0.1,0.5,0,0.6-0.3c1.1-2.5,2.2-5.1,3.4-7.6c0.3-0.7,0.8-1.4,1.3-2c0.1-0.1,0.3-0.1,0.5-0.2  c0,0.2,0,0.4,0,0.6c-0.2,0.4-0.5,0.7-0.7,1.1c-1.3,2.9-2.6,5.7-3.9,8.6c0,0.1,0,0.1,0,0.2c0.3,0.4,0.7,0.5,1.2,0.4  c0.8-0.2,1.6-0.4,2.5-0.6c1.2-0.3,2.4-0.6,3.6-1c0.2,0,0.4-0.2,0.4-0.3c1.2-2.2,2.5-4.3,3.7-6.6c0.4-0.8,0.6-1.7,1-2.6  c0.1-0.1,0.2-0.3,0.3-0.3c0.2,0,0.3,0.2,0.4,0.3c0.1,0.2,0,0.4,0,0.6c-0.5,1.7-1.3,3.2-2.2,4.8c-0.6,1-1.2,2-1.9,3  c-0.1,0.2-0.2,0.4-0.4,0.7c0.3,0,0.5,0,0.7-0.1c0.9-0.2,1.9-0.4,2.8-0.6c0.4-0.1,0.7-0.3,1-0.5c0.5-0.3,1-0.7,1.6-0.3  c0.5,0.3,0.8,1.1,0.6,1.7c-0.1,0.3-0.2,0.5-0.3,0.8c-0.1,0.3-0.2,0.5-0.3,0.8c0.2-0.1,0.3-0.1,0.4-0.1c1-0.4,2-0.9,2.9-1.3  c0.3-0.1,0.6-0.5,1-0.1c0.3,0.4-0.2,0.6-0.4,0.9c-0.4,0.5-0.8,1-1.1,1.5c-0.2,0.3-0.2,0.7-0.3,1c0.1,0,0.1,0.1,0.2,0.1  c0.3-0.2,0.7-0.4,1-0.6c0.5-0.4,0.9-1,1.4-1.4c0.2-0.2,0.4-0.4,0.7-0.6c0.6-0.4,1.2-0.1,1.3,0.6c0,0.2,0,0.3,0.1,0.5  c0.2-0.3,0.5-0.6,0.6-0.9c0.4-0.6,0.7-1.2,1-1.8c0.2-0.5,0.6-0.7,1.2-0.7c1.3,0.1,2.5-0.3,3.6-0.7c0.5-0.2,0.9-0.5,1.3-0.6  c0.2-0.1,0.6-0.2,0.7-0.1c0.2,0.1,0.3,0.5,0.2,0.7c-0.1,0.5-0.3,0.9-0.5,1.4c-0.2,0.4-0.4,0.9-0.6,1.4c0.6,0,1-0.2,1.4-0.5  c0.8-0.6,1.5-1.1,2.3-1.7c0.4-0.3,0.7-0.6,1.1-0.9c0.1-0.1,0.4-0.1,0.5,0c0.1,0.1,0.1,0.4,0.1,0.5c-0.2,0.4-0.4,0.8-0.6,1.1  c-0.2,0.4-0.4,0.8-0.6,1.3c0.8,0.2,1.4-0.1,2-0.3c1.4-0.7,2.7-1.4,4.2-2c0.8-0.3,1.3-0.8,1.7-1.5c0.4-0.8,1.1-1.6,1.6-2.3  c0.6-0.8,1.3-1.6,1.9-2.5c0.2-0.2,0.4-0.5,0.6-0.7c0.1-0.1,0.3-0.2,0.4-0.1c0.1,0.1,0.2,0.3,0.2,0.4c-0.1,0.3-0.2,0.5-0.4,0.8  c-1.1,1.6-2.2,3.1-3.3,4.7c-0.1,0.2-0.1,0.4-0.2,0.6c-0.1,0.2-0.1,0.4-0.2,0.5c-0.7,0.6-0.8,1.5-0.2,2.1c0.5,0.5,1.1,0.7,1.8,0.8  c0.4,0,0.9,0.1,1.3,0.1c-0.1,0.4-0.3,0.4-0.6,0.4c-0.4,0-0.8,0.1-1.2,0c-0.6-0.1-1.1-0.6-1.7-0.9c-0.7-0.4-0.5-0.9-0.8-1.5  c-0.4,0.4-0.7,0.7-1.1,1.1c-0.5,0.4-1.1,0.8-1.7,1.2c-0.2,0.1-0.5-0.1-0.7-0.1c0.1-0.2,0.1-0.5,0.3-0.7c0.3-0.3,0.6-0.5,0.9-0.8  c-0.1,0-0.2,0.1-0.3,0.1c-1.1,0.5-2.1,1-3.2,1.4c-0.1,0.1-0.3,0.1-0.4,0.2c-1.1,0.2-1.6-0.4-1.3-1.4c0.1-0.2,0.1-0.4,0.2-0.7  c-0.4,0.3-0.6,0.5-0.9,0.7c-0.5,0.4-1.1,0.8-1.6,1.1c-0.2,0.1-0.4,0.2-0.6,0.3c-0.9,0.4-1.2,0.3-1.6-0.7c-0.2,0.2-0.5,0.4-0.7,0.6  c-0.2,0.2-0.4,0.4-0.7,0.6c-0.2,0.1-0.5,0.1-0.6,0.1c-0.2-0.1-0.3-0.4-0.3-0.6c0-0.3,0.2-0.7,0.4-1c0.1-0.2,0.3-0.5,0.5-0.7  c0.2-0.2,0.4-0.4,0.5-0.7c-0.2,0.1-0.4,0.1-0.5,0.2c-0.8,0.4-1.6,0.5-2.5,0.5c-0.5,0-0.7,0.2-0.9,0.6c-0.6,0.9-1.1,1.8-1.7,2.7  c-0.2,0.3-0.6,0.7-1,0.4c-0.4-0.2-0.4-0.7-0.2-1.1c0.1-0.2,0.1-0.4,0-0.6c-0.1,0.1-0.3,0.2-0.4,0.3c-0.7,0.6-1.3,1.2-2,1.8  c-0.1,0.1-0.2,0.2-0.3,0.2c-0.4,0.2-0.8,0.5-1.3,0.2c-0.4-0.2-0.5-1-0.3-1.4c0.2-0.5,0.4-0.9,0.6-1.5c-0.2,0.1-0.5,0.2-0.7,0.4  c-0.5,0.2-1,0.5-1.5,0.6c-0.5,0.2-0.8,0.4-1.1,0.8c-0.6,0.8-1.2,1.6-1.9,2.3c-0.3,0.3-0.8,0.7-1.2,0.4c-0.4-0.3-0.3-0.9-0.1-1.3  c0.2-0.5,0.4-1,0.7-1.4c0.2-0.3,0.2-0.6,0-0.9c-0.3-0.5-0.3-1.1,0-1.6c0.1-0.2,0.2-0.4,0.3-0.7c-1,0.2-1.9,0.4-2.8,0.6  c-0.8,0.1-1.2,0.5-1.6,1.2c-0.8,1.2-1.6,2.3-2.4,3.5c-0.3,0.5-0.6,1-0.9,1.5c-0.1,0.1-0.2,0.3-0.3,0.3c-0.2,0-0.4-0.1-0.5-0.3  c-0.1-0.2-0.2-0.4-0.2-0.7c-0.5-1.3-1.2-2.4-2.2-3.4c-0.4-0.4-1.4-0.2-1.6,0.3c-1,2-2,4.1-3,6.1c-0.7,1.5-1.4,3-2.1,4.5  c-0.3,0.7-0.7,1.5-1.1,2.2c-0.1,0-0.2-0.1-0.2-0.1C13,34.6,13,34.4,13,34.2"/>
<path class="st0" d="M108.4,13c0,0-0.1-0.1-0.1-0.1c-1,1-2.2,1.8-2.8,3.1c0,0,0.1,0.1,0.1,0.1C106.5,15.1,107.4,14,108.4,13   M99.8,17.5c-0.8,0.5-1.6,0.9-2.1,1.8C98.7,19,99.6,18.7,99.8,17.5 M71.6,8.2c0.1,0.1,0.3,0.2,0.3,0.3C72,8.6,72,8.8,72,9  c-0.1,0-0.3,0.1-0.4,0.1C71.2,9,70.9,9,70.5,9c0,0.1,0,0.2,0,0.2c0.7,0.1,1.4,0.3,2.1,0.3c2.8-0.1,5.6-0.2,8.4-0.3  c0.8,0,1.6,0.1,2.4,0.2c1,0.2,1.2,0.9,0.6,1.7c-0.4,0.6-0.9,1.1-1.3,1.6c-1,1.2-2.1,2.5-3.1,3.7c-0.1,0.1-0.2,0.2-0.2,0.4  c0.3-0.2,0.6-0.4,0.9-0.5c0.3-0.1,0.5-0.3,0.8-0.4c0.8-0.2,1.1-0.1,1.3,0.8c0.3-0.2,0.5-0.5,0.8-0.6c0.2-0.1,0.7-0.3,0.8-0.2  c0.2,0.2,0.3,0.5,0.3,0.8c0,0.3-0.2,0.5-0.3,0.8c-0.4,1-0.9,2.1-1.3,3.1c-0.2,0.6-0.1,0.8,0.6,0.7c1.4-0.3,2.6-1,3.3-2.3  c0.4-0.7,0.7-1.4,1.1-2c0.1-0.2,0.4-0.3,0.6-0.5c0.1,0.3,0.3,0.5,0.3,0.8c0,0.3-0.2,0.5-0.3,0.8c-0.3,0.5-0.6,0.9-0.9,1.4  c-0.2,0.3-0.3,0.6-0.4,1.1c0.1-0.1,0.3-0.1,0.4-0.2c0.9-0.5,1.8-1.2,2.3-2.1c0.1-0.1,0.1-0.2,0.2-0.3c0.2-0.1,0.4-0.2,0.5-0.2  c0.1,0.1,0.3,0.4,0.3,0.5c-0.1,0.4-0.2,0.8-0.4,1.1c-0.1,0.2-0.1,0.4-0.2,0.7c0.5-0.2,0.8-0.3,1.2-0.5c1.1-0.6,2.2-1.3,3-2.3  c0.3-0.3,0.7-0.6,1.1-0.9c0.6-0.3,1.2,0,1.1,0.7c-0.1,0.4-0.3,0.9-0.5,1.3c-0.2,0.5-0.6,0.9-0.8,1.4c-0.2,0.5-0.1,0.7,0.5,0.6  c0.4-0.1,0.8-0.3,1.3-0.4c-0.3-0.8,0.1-1.4,0.6-1.9c0.6-0.6,1.2-1.1,1.9-1.6c0.3-0.2,0.7-0.4,0.9-0.1c0.2,0.2,0.2,0.6,0.2,0.8  c0,0.3-0.1,0.6-0.2,0.9c0.2,0,0.4,0.1,0.6,0.1c1.1,0,2.1-0.2,3-0.8c0.1-0.1,0.2-0.2,0.2-0.3c0.3-1.3,0.9-2.3,1.8-3.2  c0.8-0.8,1.6-1.6,2.3-2.4c0.2-0.2,0.5-0.4,0.8-0.6c0.4-0.2,0.8,0,0.7,0.4c-0.1,0.4-0.2,0.8-0.5,1.1c-1.3,1.8-2.6,3.6-4.3,5.1  c-0.2,0.2-0.3,0.4-0.2,0.8c0.1,0.7,0.5,1.3,1.2,1.6c0.5,0.2,1,0.3,1.4,0.5c0.5,0.2,1,0.3,1.5,0.6c-1.6,0.5-4.2-0.8-5-2.4  c-0.3,0.2-0.5,0.5-0.8,0.7c-0.3,0.2-0.5,0.4-0.9,0.6c-0.4,0.2-0.6,0.1-0.8-0.4c0-0.1,0-0.2,0-0.2c-0.5-0.1-1-0.2-1.5-0.3  c-0.1,0-0.2,0.1-0.3,0.1c-0.9,0.4-1.7,0.8-2.6,1.1c-0.1,0-0.2,0.1-0.3,0.2c-0.5,0.2-1.1,0.5-1.6,0.7c-0.5,0.1-0.9-0.2-0.9-0.8  c-0.1-0.6,0.2-1.1,0.5-1.5c0.3-0.4,0.5-0.8,0.8-1.3c0,0-0.1-0.1-0.1-0.1c-0.2,0.2-0.5,0.3-0.7,0.5c-1.2,1.2-2.5,2.1-4,2.8  c-0.2,0.1-0.3,0.2-0.5,0.2c-0.4,0.1-0.7-0.1-0.8-0.4c-0.1-0.2-0.1-0.4-0.2-0.6c-0.4,0.3-0.7,0.5-1,0.8c-0.3,0.2-0.7,0.4-1,0.6  c-0.4,0.2-0.7,0.1-1-0.2C86,21,85.9,21,85.6,21.2c-0.5,0.3-0.9,0.6-1.4,0.8c-0.3,0.2-0.7,0.3-1.1,0.3c-0.6,0.1-1.1-0.2-1.1-0.8  c-0.1-0.5,0-1.1,0.2-1.6c0.2-0.7,0.6-1.3,0.9-1.9c0.1-0.3,0.2-0.5,0.3-0.9c-0.2,0.1-0.4,0.1-0.5,0.3c-0.7,0.8-1.4,1.7-2.2,2.5  c-1,1.1-2,2.3-2.9,3.4c-0.2,0.2-0.5,0.5-0.8,0.2c-0.3-0.3-0.2-0.6,0-0.9c1-1.2,2-2.3,3-3.5c0.5-0.6,1.2-1.1,1.4-1.9  c0-0.1,0-0.2,0.1-0.2c0,0,0-0.1,0-0.3c-0.9,0.6-1.8,1.1-2.5,1.6c-2.2,1.6-4,3.7-5.8,5.7c-0.4,0.5-0.9,1-1.3,1.4  c-0.1,0.1-0.4,0.1-0.6,0.1c-0.1,0-0.1-0.3-0.1-0.5c0-0.2,0.2-0.3,0.3-0.4c3.3-3.4,6.4-7,9.4-10.6c0.7-0.8,1.4-1.7,2.1-2.5  c0.3-0.3,0.5-0.7,0.8-1.2c-0.6-0.1-1.1-0.2-1.5-0.2c-1.9,0.1-3.7,0.1-5.6,0.2c-2,0.1-4.1,0.2-6.1-0.4c-0.5-0.1-1-0.4-1.4-0.6  c-0.2-0.1-0.3-0.4-0.3-0.6c0-0.1,0.3-0.2,0.5-0.3c0.3-0.1,0.7-0.2,1.1-0.2H71.6z"/>
<path class="st0" d="M124.2,19.3c0.9,0,1.8-0.6,2.1-1.3c-0.2,0-0.4-0.1-0.6-0.1C125.2,18.3,124.6,18.6,124.2,19.3 M127.2,18.5  c-0.6,1.3-1.8,1.7-3.1,1.8c-0.3,0-0.6,0.1-0.9,0.2c-0.1,0-0.4,0-0.4,0c-0.1-0.1-0.2-0.4-0.1-0.5c0.7-1.1,1.3-2.3,2.6-2.9  c0.7-0.3,1.2-0.1,1.6,0.5c0.1,0.1,0.1,0.2,0.2,0.3V18.5z"/>
<path class="st0" d="M119.8,17.1c0.3-0.2,0.7-0.5,1.1-0.7c0.2-0.1,0.5-0.1,0.7,0c0.2,0.1,0.3,0.5,0.2,0.7c-0.1,0.4-0.3,0.8-0.4,1.1  c-0.5,0.9-1,1.8-1.5,2.7c-0.1,0.1-0.1,0.2-0.3,0.4c-0.1-0.3-0.3-0.5-0.2-0.6c0.2-0.6,0.3-1.1,0.6-1.6c0.2-0.4,0.5-0.8,0.7-1.3  c-1.1,0.5-1.7,1.8-3,2c-0.2-1.1,0.8-1.6,1-2.5c-0.2,0.1-0.5,0.3-0.7,0.5c-1.3,1.2-2.6,2.5-4,3.7c-0.1,0.1-0.1,0.2-0.2,0.2  c-0.2,0-0.4,0.1-0.6,0c-0.1,0-0.1-0.4-0.1-0.5c0.2-0.4,0.4-0.7,0.6-1c0.5-0.6,1-1.1,1.5-1.6c0.1-0.1,0.2-0.1,0.3-0.1  c0.3,0.1,0.5,0,0.7-0.2c0.8-0.6,1.5-1.2,2.3-1.7c0.2-0.2,0.7-0.3,0.8-0.2C119.6,16.4,119.7,16.8,119.8,17.1"/>
<g>
	<path class="st0" d="M39.2,30.8v-3.4c0,0,0,0,0.1,0h1c0.3,0,0.6,0.1,0.7,0.3s0.3,0.4,0.3,0.7v1.6c0,0.3-0.1,0.5-0.3,0.7   s-0.4,0.3-0.7,0.3L39.2,30.8C39.2,30.8,39.2,30.8,39.2,30.8z M39.7,30.4l0.6,0c0.2,0,0.3-0.1,0.4-0.2c0.1-0.1,0.1-0.3,0.1-0.4v-1.5   c0-0.2,0-0.3-0.1-0.4s-0.2-0.2-0.4-0.2h-0.6c0,0,0,0,0,0L39.7,30.4C39.7,30.4,39.7,30.4,39.7,30.4z"/>
	<path class="st0" d="M43.7,30.8l-0.6-1.5c0,0,0,0,0,0h-0.5c0,0,0,0,0,0v1.5c0,0,0,0,0,0h-0.4c0,0-0.1,0-0.1,0v-3.4c0,0,0,0,0.1,0   h1.1c0.3,0,0.5,0.1,0.7,0.3c0.2,0.2,0.3,0.4,0.3,0.7c0,0.2-0.1,0.4-0.2,0.6c-0.1,0.2-0.2,0.3-0.4,0.3c0,0,0,0,0,0l0.6,1.5l0,0   c0,0,0,0,0,0L43.7,30.8C43.8,30.8,43.7,30.8,43.7,30.8z M42.6,27.8v1.1c0,0,0,0,0,0h0.6c0.2,0,0.3-0.1,0.4-0.2   c0.1-0.1,0.1-0.2,0.1-0.4c0-0.2,0-0.3-0.1-0.4c-0.1-0.1-0.2-0.2-0.4-0.2L42.6,27.8C42.6,27.7,42.6,27.8,42.6,27.8z"/>
	<path class="st0" d="M45,30.7c-0.1-0.1-0.1-0.2-0.1-0.2c0-0.1,0-0.2,0.1-0.2s0.1-0.1,0.2-0.1c0.1,0,0.2,0,0.2,0.1   c0.1,0.1,0.1,0.1,0.1,0.2c0,0.1,0,0.2-0.1,0.2s-0.2,0.1-0.2,0.1C45.1,30.8,45,30.8,45,30.7z"/>
	<path class="st0" d="M49.3,27.3h0.4c0,0,0.1,0,0.1,0v3.4c0,0,0,0-0.1,0h-0.4c0,0,0,0,0,0v-1.5c0,0,0,0,0,0h-1.1c0,0,0,0,0,0v1.5   c0,0,0,0,0,0h-0.4c0,0-0.1,0-0.1,0v-3.4c0,0,0,0,0.1,0H48c0,0,0,0,0,0v1.5c0,0,0,0,0,0h1.1c0,0,0,0,0,0L49.3,27.3   C49.2,27.4,49.2,27.3,49.3,27.3z"/>
	<path class="st0" d="M51,30.7c-0.2-0.1-0.3-0.2-0.4-0.4c-0.1-0.2-0.1-0.3-0.1-0.6v-1.5c0-0.2,0-0.4,0.1-0.5   c0.1-0.2,0.2-0.3,0.4-0.4c0.2-0.1,0.3-0.1,0.6-0.1s0.4,0,0.6,0.1c0.2,0.1,0.3,0.2,0.4,0.4s0.1,0.3,0.1,0.5v1.5c0,0.2,0,0.4-0.1,0.6   s-0.2,0.3-0.4,0.4c-0.2,0.1-0.4,0.1-0.6,0.1S51.2,30.8,51,30.7z M52,30.3c0.1-0.1,0.2-0.3,0.2-0.5v-1.5c0-0.2-0.1-0.3-0.2-0.5   c-0.1-0.1-0.3-0.2-0.4-0.2c-0.2,0-0.3,0.1-0.4,0.2C51.1,28,51,28.2,51,28.3v1.5c0,0.2,0.1,0.3,0.2,0.4c0.1,0.1,0.3,0.2,0.4,0.2   C51.8,30.5,51.9,30.4,52,30.3z"/>
	<path class="st0" d="M54,30.8l-0.8-3.4l0,0c0,0,0,0,0,0h0.4c0,0,0.1,0,0.1,0l0.5,2.4c0,0,0,0,0,0s0,0,0,0l0.5-2.4c0,0,0,0,0.1,0   h0.4c0,0,0.1,0,0.1,0l0.5,2.4c0,0,0,0,0,0s0,0,0,0l0.5-2.4c0,0,0,0,0.1,0h0.4c0,0,0,0,0,0c0,0,0,0,0,0L56,30.8c0,0,0,0-0.1,0h-0.4   c0,0,0,0-0.1,0L55,28.3c0,0,0,0,0,0s0,0,0,0l-0.5,2.5c0,0,0,0-0.1,0L54,30.8C54,30.8,54,30.8,54,30.8z"/>
	<path class="st0" d="M58.8,30.8l-0.1-0.6c0,0,0,0,0,0h-1.1c0,0,0,0,0,0l-0.1,0.6c0,0,0,0-0.1,0h-0.4c0,0,0,0,0,0c0,0,0,0,0,0   l0.9-3.4c0,0,0,0,0.1,0h0.5c0,0,0,0,0.1,0l0.9,3.4l0,0c0,0,0,0-0.1,0L58.8,30.8C58.9,30.8,58.8,30.8,58.8,30.8z M57.6,29.8   C57.6,29.8,57.6,29.8,57.6,29.8l0.9,0c0,0,0,0,0,0c0,0,0,0,0,0L58.1,28c0,0,0,0,0,0s0,0,0,0L57.6,29.8   C57.6,29.8,57.6,29.8,57.6,29.8z"/>
	<path class="st0" d="M61.7,30.8l-0.6-1.5c0,0,0,0,0,0h-0.5c0,0,0,0,0,0v1.5c0,0,0,0,0,0h-0.4c0,0-0.1,0-0.1,0v-3.4c0,0,0,0,0.1,0   h1.1c0.3,0,0.5,0.1,0.7,0.3c0.2,0.2,0.3,0.4,0.3,0.7c0,0.2-0.1,0.4-0.2,0.6c-0.1,0.2-0.2,0.3-0.4,0.3c0,0,0,0,0,0l0.6,1.5l0,0   c0,0,0,0,0,0L61.7,30.8C61.7,30.8,61.7,30.8,61.7,30.8z M60.5,27.8v1.1c0,0,0,0,0,0h0.6c0.2,0,0.3-0.1,0.4-0.2   c0.1-0.1,0.1-0.2,0.1-0.4c0-0.2,0-0.3-0.1-0.4c-0.1-0.1-0.2-0.2-0.4-0.2L60.5,27.8C60.5,27.7,60.5,27.8,60.5,27.8z"/>
	<path class="st0" d="M62.9,30.8v-3.4c0,0,0,0,0.1,0h1c0.3,0,0.6,0.1,0.7,0.3S65,28,65,28.3v1.6c0,0.3-0.1,0.5-0.3,0.7   s-0.4,0.3-0.7,0.3L62.9,30.8C62.9,30.8,62.9,30.8,62.9,30.8z M63.4,30.4l0.6,0c0.2,0,0.3-0.1,0.4-0.2c0.1-0.1,0.1-0.3,0.1-0.4v-1.5   c0-0.2,0-0.3-0.1-0.4s-0.2-0.2-0.4-0.2h-0.6c0,0,0,0,0,0L63.4,30.4C63.4,30.4,63.4,30.4,63.4,30.4z"/>
	<path class="st0" d="M67,30.8v-3.4c0,0,0,0,0.1,0h0.4c0,0,0,0,0.1,0l0.7,1.4c0,0,0,0,0,0s0,0,0,0l0.7-1.4c0,0,0,0,0.1,0h0.4   c0,0,0,0,0,0v3.4c0,0,0,0,0,0H69c0,0-0.1,0-0.1,0v-2.4c0,0,0,0,0,0s0,0,0,0l-0.5,1.1c0,0,0,0-0.1,0h-0.2c0,0,0,0-0.1,0l-0.5-1.1   c0,0,0,0,0,0c0,0,0,0,0,0v2.4c0,0,0,0,0,0L67,30.8C67,30.8,67,30.8,67,30.8z"/>
	<path class="st0" d="M70.8,30.7c-0.2-0.1-0.3-0.2-0.4-0.4c-0.1-0.2-0.1-0.3-0.1-0.6v-2.4c0,0,0,0,0,0h0.4c0,0,0.1,0,0.1,0v2.5   c0,0.2,0.1,0.3,0.2,0.5c0.1,0.1,0.2,0.2,0.4,0.2c0.2,0,0.3-0.1,0.4-0.2c0.1-0.1,0.2-0.3,0.2-0.5v-2.5c0,0,0,0,0.1,0h0.4   c0,0,0,0,0,0v2.4c0,0.2,0,0.4-0.1,0.6c-0.1,0.2-0.2,0.3-0.4,0.4c-0.2,0.1-0.3,0.1-0.6,0.1C71.1,30.9,71,30.8,70.8,30.7z"/>
	<path class="st0" d="M74.9,30.8l-0.6-1.5c0,0,0,0,0,0h-0.5c0,0,0,0,0,0v1.5c0,0,0,0,0,0h-0.4c0,0-0.1,0-0.1,0v-3.4c0,0,0,0,0.1,0   h1.1c0.3,0,0.5,0.1,0.7,0.3c0.2,0.2,0.3,0.4,0.3,0.7c0,0.2-0.1,0.4-0.2,0.6s-0.2,0.3-0.4,0.3c0,0,0,0,0,0l0.6,1.5l0,0c0,0,0,0,0,0   L74.9,30.8C75,30.8,75,30.8,74.9,30.8z M73.8,27.8v1.1c0,0,0,0,0,0h0.6c0.2,0,0.3-0.1,0.4-0.2c0.1-0.1,0.1-0.2,0.1-0.4   c0-0.2,0-0.3-0.1-0.4c-0.1-0.1-0.2-0.2-0.4-0.2L73.8,27.8C73.8,27.7,73.8,27.8,73.8,27.8z"/>
	<path class="st0" d="M78,30.8l-0.1-0.6c0,0,0,0,0,0h-1.1c0,0,0,0,0,0l-0.1,0.6c0,0,0,0-0.1,0h-0.4c0,0,0,0,0,0c0,0,0,0,0,0l0.9-3.4   c0,0,0,0,0.1,0h0.5c0,0,0,0,0.1,0l0.9,3.4l0,0c0,0,0,0-0.1,0L78,30.8C78,30.8,78,30.8,78,30.8z M76.8,29.8   C76.8,29.8,76.8,29.8,76.8,29.8l0.9,0c0,0,0,0,0,0s0,0,0,0L77.3,28c0,0,0,0,0,0c0,0,0,0,0,0L76.8,29.8   C76.8,29.8,76.8,29.8,76.8,29.8z"/>
	<path class="st0" d="M79.2,30.8v-3.4c0,0,0,0,0.1,0h1c0.3,0,0.6,0.1,0.7,0.3c0.2,0.2,0.3,0.4,0.3,0.7v1.6c0,0.3-0.1,0.5-0.3,0.7   c-0.2,0.2-0.4,0.3-0.7,0.3L79.2,30.8C79.2,30.8,79.2,30.8,79.2,30.8z M79.7,30.4l0.6,0c0.2,0,0.3-0.1,0.4-0.2   c0.1-0.1,0.1-0.3,0.1-0.4v-1.5c0-0.2,0-0.3-0.1-0.4s-0.2-0.2-0.4-0.2h-0.6c0,0,0,0,0,0L79.7,30.4C79.7,30.4,79.7,30.4,79.7,30.4z"/>
</g>
</svg>